<?xml version="1.0" standalone="no"?><svg xmlns="http://www.w3.org/2000/svg" viewBox="0 0 1440 320"><path fill="#273036" fill-opacity="0.25" d="M0,128L26.7,122.7C53.3,117,107,107,160,128C213.3,149,267,203,320,192C373.3,181,427,107,480,69.3C533.3,32,587,32,640,53.3C693.3,75,747,117,800,138.7C853.3,160,907,160,960,160C1013.3,160,1067,160,1120,181.3C1173.3,203,1227,245,1280,256C1333.3,267,1387,245,1413,234.7L1440,224L1440,320L1413.3,320C1386.7,320,1333,320,1280,320C1226.7,320,1173,320,1120,320C1066.7,320,1013,320,960,320C906.7,320,853,320,800,320C746.7,320,693,320,640,320C586.7,320,533,320,480,320C426.7,320,373,320,320,320C266.7,320,213,320,160,320C106.7,320,53,320,27,320L0,320Z"></path></svg>